<svg version="1.2" xmlns="http://www.w3.org/2000/svg" viewBox="0 0 1543 360" width="1543" height="360">
	<title>Annual Report 2023-4-pdf-svg</title>
	<defs>
		<clipPath clipPathUnits="userSpaceOnUse" id="cp1">
			<path d="m-9753.31-904.27h12424v16096.86h-12424z"/>
		</clipPath>
	</defs>
	<style>
		.s0 { fill: #11243d } 
		.s1 { fill: #ff583c } 
	</style>
	<g id="Clip-Path: Page 1" clip-path="url(#cp1)">
		<g id="Page 1">
			<path id="Path 5" fill-rule="evenodd" class="s0" d="m1542 198.3h-154.3q4 19.3 20.3 29.5 15.2 11.2 37.5 11.2 16.3 0 28.5-4.1 12.1-5.1 23.3-15.2l31.5 33.5q-29.5 33.5-84.3 33.5-34.5 0-60.9-14.2-26.4-13.2-40.6-36.6-14.2-24.4-14.2-53.8 0-30.5 14.2-53.9 14.2-24.4 38.6-37.6 24.4-13.2 55.8-13.2 29.5 0 53.8 12.2 24.4 13.2 37.6 37.6 14.2 23.4 14.2 54.9 0 2-1 16.2zm-138.1-65q-14.2 11.2-17.2 30.5h100.5q-3.1-19.3-16.3-30.5-14.2-11.2-33.5-11.2-20.3 0-33.5 11.2zm-692.2 139.2q-25.4-13.2-39.6-36.6-14.2-24.4-14.2-53.8 0-30.5 14.2-54.9 14.2-23.4 39.6-36.6 26.4-13.2 57.8-13.2 32.5 0 57.9 13.2 25.4 13.2 39.6 36.6 14.2 24.4 14.2 54.9 0 29.4-14.2 53.8-14.2 23.4-39.6 36.6-25.4 14.2-57.9 14.2-31.4 0-57.8-14.2zm95.4-49.8q14.2-15.2 14.2-40.6 0-26.5-14.2-41.7-15.2-15.2-37.6-15.2-22.3 0-37.5 15.2-14.2 15.2-14.2 41.7 0 25.4 14.2 40.6 15.2 15.3 37.5 15.3 22.4 0 37.6-15.3zm197.9-138.2q18.3-7.1 41.6-7.1v53.9q-10.1-1.1-13.2-1.1-25.3 0-39.5 14.3-14.3 14.2-14.3 42.6v96.6h-58.8v-203.3h55.8v26.5q10.1-14.3 28.4-22.4z"/>
			<path id="Path 6" fill-rule="evenodd" class="s0" d="m1289.2 80.4v168.7q0 55.9-29.4 83.4-28.4 27.4-85.3 27.4-28.4 0-55.8-7.1-26.4-7.1-43.6-21.4l23.3-41.6q13.2 10.1 32.5 16.2 20.3 6.1 39.6 6.1 30.4 0 44.6-13.2 15.3-14.2 15.3-41.6v-9.2q-23.4 25.4-64 25.4-28.4 0-51.8-12.2-23.3-12.2-36.5-34.5-13.2-22.4-13.2-51.8 0-28.5 13.2-50.9 13.2-22.3 36.5-34.5 23.4-12.2 51.8-12.2 43.7 0 67 28.4v-25.4zm-73.1 131.1q14.2-14.2 14.2-36.5 0-22.4-14.2-35.6-15.2-14.2-38.6-14.2-23.3 0-38.5 14.2-15.3 13.2-15.3 35.6 0 22.3 15.3 36.5 15.2 13.2 38.5 13.2 23.4 0 38.6-13.2zm-719.6-30.5q0 30.5-15.3 53.9-15.2 23.4-42.6 36.6-25.4 13.2-58.9 13.2v-47.8q23.4-1 37.6-15.2 15.2-15.2 15.2-40.7 0-25.4-15.2-40.6-14.2-14.2-37.6-15.2v-47.8q33.5 0 58.9 13.2 27.4 13.2 42.6 36.6 15.3 24.4 15.3 53.8z"/>
			<path id="Path 7" class="s1" d="m279.3 127.2q15.2-23.4 41.6-36.6 26.4-13.2 58.9-13.2v17.3 15.2 6.1 9.2q-22.4 1-36.6 15.2-16.2 15.2-16.2 40.6 0 25.5 16.2 40.7 14.2 14.2 36.6 15.2v10.2 1 5.1 15.2 16.3q-32.5 0-58.9-13.2-26.4-13.2-41.6-36.6-15.3-23.4-15.3-53.9 0-29.4 15.3-53.8zm-209.1 143.3q-32.5-17.3-50.8-48.8-19.3-31.5-19.3-70.1 0-39.7 19.3-71.2 18.3-30.4 50.8-48.7 32.5-17.3 74.1-17.3 33.5 0 61.9 12.2 27.4 12.2 46.7 34.5l-39.6 36.6q-26.4-31.5-66-31.5-25.4 0-44.6 11.2-19.3 10.2-29.5 29.5-11.1 19.3-11.1 44.7 0 24.4 11.1 43.7 10.2 19.3 29.5 29.4 19.2 11.2 44.6 11.2 39.6 0 66-31.5l39.6 36.6q-19.3 22.4-46.7 34.6-28.4 12.2-62.9 12.2-40.6 0-73.1-17.3z"/>
			<path id="Path 8" class="s0" d="m593.9 84.5h52.8v45.7h-50.7v153.5h-58.9v-153.5h-31.5v-45.7h31.5v-9.1q0-34.6 20.3-54.9 20.3-20.3 57.8-20.3 13.2 0 25.4 3 11.2 2 19.3 8.1l-15.2 42.7q-10.2-7.1-23.4-7.1-27.4 0-27.4 29.5z"/>
		</g>
	</g>
</svg>